<svg width="512" height="512" viewBox="0 0 512 512" fill="none" xmlns="http://www.w3.org/2000/svg">
  <defs>
    <linearGradient id="gold" x1="92" y1="102" x2="398" y2="392" gradientUnits="userSpaceOnUse">
      <stop offset="0" stop-color="#FFF475"/>
      <stop offset="0.48" stop-color="#F1D04D"/>
      <stop offset="1" stop-color="#C89625"/>
    </linearGradient>
    <mask id="outerShieldMask" maskUnits="userSpaceOnUse" x="102" y="70" width="308" height="372">
      <path d="M256 70C206.5 101.4 155.4 122.6 102 134V217.6C102 312.8 156.5 391.1 256.6 442C356.2 390.8 410 312.1 410 217.6V134C356.6 122.6 305.5 101.4 256 70Z" fill="white"/>
      <path d="M256 105.8C211.3 132 167 149.4 126 158.3V219.9C126 298.7 169.6 362.5 256.6 407.1C343.1 362.2 386 298.2 386 219.9V158.3C345 149.5 300.8 132.2 256 105.8Z" fill="black"/>
    </mask>
    <mask id="innerShieldMask" maskUnits="userSpaceOnUse" x="143.8" y="126.4" width="256.1" height="256.4">
      <path d="M255.7 126.4C294.4 148.1 334.7 163.8 368.2 171.3V220.2C368.2 286.3 334.1 340.2 256.2 382.8C178.4 340.6 143.8 286.6 143.8 220.2V171.3C177.3 163.8 216.8 148.8 255.7 126.4Z" fill="white"/>
      <path d="M256.1 161.9V262.8L200.2 251.3L173.8 242.3V191.6L238.8 170.8V127.7C208.3 141.1 177.2 151.4 143.8 158.4V243L201.1 273.5L217.6 300L256.1 290.4V382.7C295.2 362.7 323 337.7 341.9 306.7L320.5 294.2C306.5 318.9 286.8 338.8 261 354.7V288.8L399.9 256L363.8 294.1L261 316.8V287.9L333.7 261.8H362.5V198.5L335.9 175.5H287.2V183.9H332.6L354.8 203.3V254H320.3L272.8 271.7V164.9L256.1 161.9Z" fill="black"/>
    </mask>
  </defs>
  <path d="M256 70C206.5 101.4 155.4 122.6 102 134V217.6C102 312.8 156.5 391.1 256.6 442C356.2 390.8 410 312.1 410 217.6V134C356.6 122.6 305.5 101.4 256 70Z" fill="url(#gold)" mask="url(#outerShieldMask)"/>
  <path d="M255.7 126.4C294.4 148.1 334.7 163.8 368.2 171.3V220.2C368.2 286.3 334.1 340.2 256.2 382.8C178.4 340.6 143.8 286.6 143.8 220.2V171.3C177.3 163.8 216.8 148.8 255.7 126.4Z" fill="url(#gold)" mask="url(#innerShieldMask)"/>
  <path d="M256.2 171.4L269.2 213.6L316.9 225.6L269.2 237.5L256.2 279.9L243.1 237.5L195.5 225.6L243.1 213.6L256.2 171.4Z" fill="url(#gold)"/>
  <path d="M299.7 280.7C299.7 285.1 296.1 288.7 291.7 288.7C287.3 288.7 283.7 285.1 283.7 280.7C283.7 276.3 287.3 272.7 291.7 272.7C296.1 272.7 299.7 276.3 299.7 280.7Z" fill="url(#gold)"/>
  <path d="M396.2 196.1C438.7 188.6 460 196.3 462.4 217.1C464.7 237 446.8 254.9 426.2 273.4" stroke="url(#gold)" stroke-width="11" stroke-linecap="round"/>
  <path d="M176.7 304.1C106.6 324.4 53.2 326.9 43.9 307.2C38.3 295.2 52.5 278.1 77.5 260.8" stroke="url(#gold)" stroke-width="11" stroke-linecap="round"/>
  <path d="M89.8 261.4C89.8 271.1 81.9 279 72.2 279C62.5 279 54.6 271.1 54.6 261.4C54.6 251.7 62.5 243.8 72.2 243.8C81.9 243.8 89.8 251.7 89.8 261.4Z" fill="url(#gold)"/>
  <path d="M215.5 303.4C215.5 316.1 205.2 326.4 192.5 326.4C179.8 326.4 169.5 316.1 169.5 303.4C169.5 290.7 179.8 280.4 192.5 280.4C205.2 280.4 215.5 290.7 215.5 303.4Z" fill="url(#gold)"/>
  <path d="M442.7 242.5C442.7 255 432.5 265.2 420 265.2C407.5 265.2 397.3 255 397.3 242.5C397.3 230 407.5 219.8 420 219.8C432.5 219.8 442.7 230 442.7 242.5Z" fill="url(#gold)"/>
</svg>
